<svg width="25" height="23" viewBox="0 0 25 23" fill="none" xmlns="http://www.w3.org/2000/svg">
<path d="M0.125 1.28125C0.125 0.722656 0.554688 0.25 1.15625 0.25H3.08984C4.03516 0.25 4.89453 0.808594 5.28125 1.625H22.9414C24.0586 1.625 24.875 2.69922 24.5742 3.81641L22.8125 10.3477C22.4688 11.7227 21.2227 12.625 19.8477 12.625H7.42969L7.6875 13.8711C7.77344 14.3438 8.20312 14.6875 8.67578 14.6875H21.0938C21.6523 14.6875 22.125 15.1602 22.125 15.7188C22.125 16.3203 21.6523 16.75 21.0938 16.75H8.67578C7.21484 16.75 5.92578 15.7188 5.66797 14.2578L3.43359 2.61328C3.39062 2.44141 3.26172 2.3125 3.08984 2.3125H1.15625C0.554688 2.3125 0.125 1.88281 0.125 1.28125ZM5.625 20.1875C5.625 19.457 6.01172 18.8125 6.65625 18.4258C7.25781 18.0391 8.07422 18.0391 8.71875 18.4258C9.32031 18.8125 9.75 19.457 9.75 20.1875C9.75 20.9609 9.32031 21.6055 8.71875 21.9922C8.07422 22.3789 7.25781 22.3789 6.65625 21.9922C6.01172 21.6055 5.625 20.9609 5.625 20.1875ZM20.0625 18.125C20.793 18.125 21.4375 18.5547 21.8242 19.1562C22.2109 19.8008 22.2109 20.6172 21.8242 21.2188C21.4375 21.8633 20.793 22.25 20.0625 22.25C19.2891 22.25 18.6445 21.8633 18.2578 21.2188C17.8711 20.6172 17.8711 19.8008 18.2578 19.1562C18.6445 18.5547 19.2891 18.125 20.0625 18.125Z" fill="black"/>
</svg>
