<svg width="20" height="21" viewBox="0 0 20 21" fill="none" xmlns="http://www.w3.org/2000/svg">
<path d="M20 10.5C20 15.6172 16.1328 19.8359 11.2109 20.4609V13.5859H13.9062L14.4531 10.5H11.2109V9.44531C11.2109 7.80469 11.8359 7.17969 13.4766 7.17969C13.9844 7.17969 14.375 7.21875 14.6094 7.21875V4.48438C14.1797 4.32812 13.0859 4.21094 12.4609 4.21094C9.10156 4.21094 7.57812 5.8125 7.57812 9.21094V10.5H5.50781V13.5859H7.57812V20.2266C3.20312 19.1328 0 15.1875 0 10.5C0 4.99219 4.45312 0.5 10 0.5C15.5078 0.5 20 4.99219 20 10.5Z" fill="black"/>
</svg>
