<svg width="12" height="17" viewBox="0 0 12 17" fill="none" xmlns="http://www.w3.org/2000/svg">
<path d="M6.71875 15.625C6.34375 16.0938 5.625 16.0938 5.25 15.625C3.65625 13.5938 0 8.75 0 6C0 2.6875 2.6875 0 6 0C9.3125 0 12 2.6875 12 6C12 8.75 8.34375 13.5938 6.71875 15.625ZM6 4C5.28125 4 4.625 4.40625 4.25 5C3.90625 5.625 3.90625 6.40625 4.25 7C4.625 7.625 5.28125 8 6 8C6.6875 8 7.34375 7.625 7.71875 7C8.0625 6.40625 8.0625 5.625 7.71875 5C7.34375 4.40625 6.6875 4 6 4Z" fill="#1C3C22"/>
</svg>
