<svg width="65" height="52" viewBox="0 0 65 52" fill="none" xmlns="http://www.w3.org/2000/svg">
<path d="M31.2719 3.85557C44.7324 3.05499 52.9033 18.2852 44.5088 28.8549C37.3793 37.8329 23.0754 36.0268 18.2729 25.6668C13.785 15.9851 20.5775 4.49255 31.2719 3.85716V3.85557ZM39.505 21.8418C40.0736 19.3828 40.0033 16.8254 39.2878 14.4062C38.3838 11.3531 36.4769 8.67816 34.0604 6.63062C33.8129 6.42094 32.9664 5.71408 32.6837 5.71249C32.4569 5.71249 31.5178 6.43206 31.2878 6.60997C26.0413 10.678 23.676 16.8873 26.1962 23.2698C26.6578 24.4405 27.3222 25.5175 27.8844 26.6389C27.8285 26.685 27.089 26.1227 26.99 26.0449C24.778 24.3039 23.1409 21.5177 22.4669 18.8014C22.336 18.2757 22.3024 17.599 22.1283 17.1272C22.0453 16.9032 21.8041 16.5633 21.5694 16.8206C21.2978 17.1161 20.9545 18.5997 20.8698 19.0477C19.4548 26.4785 23.8964 33.0135 31.6711 33.4042C40.0496 33.8236 44.8091 27.43 43.493 19.4527C43.2167 17.7817 42.0844 14.5126 40.952 13.2545C40.8163 13.1036 40.6534 12.9067 40.4234 12.9352L40.8386 15.9295C40.7396 17.7578 40.4282 19.5734 39.8021 21.2938L39.505 21.8418Z" fill="black"/>
<path d="M54.3865 0.00491725C55.0365 1.93173 55.5828 4.03486 55.8047 6.06492C55.8287 6.28095 55.8974 6.62564 55.8463 6.8242C55.7888 7.04659 54.4871 8.20299 54.2252 8.41108C54.1837 8.44444 53.9569 8.63029 53.9281 8.59534C53.7509 7.7328 53.7189 6.73366 53.5001 5.89018C53.4873 5.83935 53.4809 5.72816 53.3995 5.76311C53.088 6.10622 52.7766 6.45568 52.4588 6.79243C52.2671 6.99417 51.6874 7.47547 51.582 7.65656C51.5309 7.74392 51.5324 7.78681 51.5372 7.8853C51.5804 8.68747 51.8135 9.49441 51.8056 10.2998L49.6335 11.9264L49.7485 14.487L52.0451 13.2082L52.0914 16.2232C52.1569 16.2359 52.2048 16.212 52.2623 16.1882C52.6808 16.0135 53.8259 15.2129 54.091 14.8555C54.5893 14.1836 54.0431 12.4442 54.3098 11.623L56.0874 10.3315C56.0108 11.3847 56.0459 12.449 55.9501 13.5069C55.6546 16.7362 54.9391 18.7965 52.1346 20.5851L48.6928 22.4388L48.9212 20.6343L48.9691 18.7599C48.8589 16.8427 48.5251 14.9016 47.7952 13.1209C47.3161 11.9502 46.6133 10.8875 46.0352 9.76922C48.9962 7.44212 51.4829 4.59558 53.4889 1.42024C53.7588 0.992943 54.0048 0.468749 54.2859 0.0668674C54.313 0.0271558 54.2779 -0.0173213 54.3881 0.00650572L54.3865 0.00491725Z" fill="black"/>
<path d="M17.5477 26.5485C19.6144 32.5338 25.5637 35.9792 31.6343 36.8211C33.1436 37.0308 34.6545 37.0069 36.1717 37.0593C36.4928 37.0705 36.8777 37.0212 37.1859 37.0562C37.2546 37.0641 37.328 37.0657 37.3456 37.1483C36.6093 37.3659 35.8619 37.5534 35.1033 37.682C31.6327 38.2761 27.8395 38.0251 24.3834 37.4072C21.4 36.8751 15.7973 35.5217 14.1858 32.7467C12.5807 29.9795 15.1983 27.6096 17.5461 26.5485H17.5477Z" fill="black"/>
<path d="M0 42.3788L0.158115 42.3074C2.09063 42.5329 6.28467 41.6132 7.50647 43.5019C7.91214 44.1277 7.9904 45.0316 7.66618 45.7083C7.40425 46.2515 6.95067 46.3722 6.52424 46.7408C8.45356 47.0648 9.01096 49.2903 7.76361 50.6913C6.20482 52.4434 2.2759 51.5364 0.159712 51.7683L0.00159712 51.6968V42.3773L0 42.3788ZM2.43401 46.0101H4.61568C4.66839 46.0101 5.05489 45.8322 5.12037 45.7813C5.58992 45.416 5.52285 44.5106 4.94948 44.2612C4.48791 44.0594 3.14633 44.0213 2.63685 44.0896C2.57616 44.0976 2.43242 44.1484 2.43242 44.2056V46.0101H2.43401ZM5.02934 47.7463H2.43401V49.8701C2.43401 49.9272 2.57775 49.9781 2.63844 49.986C3.15591 50.0559 4.69554 50.021 5.16828 49.8478C5.75922 49.6302 5.98441 49.1362 5.85984 48.5199C5.78797 48.164 5.3791 47.8114 5.03093 47.7463H5.02934Z" fill="black"/>
<path d="M18.6412 42.0946C22.3912 41.931 24.4244 45.2318 23.498 48.6613C22.2826 53.1598 15.4006 53.0979 14.2555 48.5326C13.4569 45.3509 15.1786 42.2455 18.6428 42.0946H18.6412ZM18.6875 44.0135C15.9261 44.2009 15.843 50.2736 19.0868 50.075C21.8546 49.9051 21.9137 43.7942 18.6875 44.0135Z" fill="black"/>
<path d="M9.9668 51.7667V42.3105H12.4248L12.4934 42.3788V51.6984L12.4248 51.7667H9.9668Z" fill="black"/>
<path d="M52.7783 49.0251C52.8853 49.7304 53.1201 50.4198 53.727 50.8455C54.754 51.5634 56.6689 51.2251 57.0969 49.9639C57.8348 47.7908 54.8051 47.2666 53.5162 46.4406C51.3633 45.0603 52.3216 42.4012 54.7348 42.1788C56.4038 42.0247 57.6575 42.954 57.7837 44.6393H57.0251L56.9628 44.5631C56.9436 43.2129 55.3513 42.5489 54.187 43.0048C53.4491 43.2939 52.8582 44.2279 53.2702 44.9904C53.8181 46.0038 55.8831 46.4645 56.8318 47.1586C59.5565 49.1553 57.2966 52.5276 54.2812 51.8891C52.7783 51.5714 52.1267 50.4785 51.9941 49.0251H52.7751H52.7783Z" fill="black"/>
<path d="M30.5938 44.6391H29.7665C29.7649 43.7687 29.2043 43.1063 28.353 42.9157C27.243 42.6679 25.8519 43.335 26.0005 44.6169C26.2145 46.4548 30.2919 46.2848 30.803 48.7501C31.5137 52.178 26.3215 52.9738 25.1348 50.4132C25.0773 50.2893 24.8984 49.7953 24.8984 49.6889V49.0265H25.6794C25.6491 49.4538 25.7082 49.8096 25.919 50.1829C26.8373 51.8142 30.0539 51.4505 30.0476 49.3696C30.0412 46.9758 25.4766 47.2553 25.1875 44.879C24.7675 41.4241 30.5954 41.2033 30.5954 44.6407L30.5938 44.6391Z" fill="black"/>
<path d="M50.2998 44.639H49.5188C49.5108 43.9163 49.0445 43.2253 48.3497 42.9918C46.5146 42.3771 44.6668 44.2197 46.3741 45.5969C47.7236 46.685 50.4052 46.7946 50.5761 49.0026C50.8524 52.5877 45.2529 52.969 44.6636 49.7205C44.63 49.5347 44.555 49.1662 44.6747 49.0248H45.4334C45.3248 49.9413 45.8103 50.6975 46.6616 51.0247C48.1197 51.5854 49.9325 50.8595 49.7504 49.0947C49.5412 47.0646 45.1906 47.125 44.9335 44.9313C44.5134 41.3589 50.3333 41.2191 50.303 44.639H50.2998Z" fill="black"/>
<path d="M33.4411 42.3105V49.4602C33.4411 49.5428 33.7813 50.264 33.8532 50.3752C34.6358 51.5697 37.2263 51.4696 37.9802 50.2751C38.0728 50.1274 38.3092 49.5635 38.3092 49.4158V42.3804L38.3778 42.3121H39.1365V49.5079C39.1365 49.5873 39.0423 49.9193 39.0103 50.0225C38.3076 52.3528 34.3611 52.4863 33.0355 50.6881C32.9061 50.5134 32.6602 49.9828 32.6602 49.7827V42.3137H33.4411V42.3105Z" fill="black"/>
<path d="M64.9079 42.3105V43.0412H60.7283V46.4453C60.7283 46.4453 60.7985 46.5263 60.8209 46.5359L64.5582 46.566C64.7035 46.6137 64.6061 47.0648 64.6332 47.1998H60.8433C60.8353 47.1998 60.7283 47.3063 60.7283 47.3142V51.0376H65.0006V51.7683H59.9473V42.3105H64.9079Z" fill="black"/>
<path d="M42.3996 42.3105V51.7667H41.6409L41.5723 51.6984V42.3788L41.6409 42.3105H42.3996Z" fill="black"/>
</svg>
