<svg width="89" height="13" viewBox="0 0 89 13" fill="none" xmlns="http://www.w3.org/2000/svg">
<path fill-rule="evenodd" clip-rule="evenodd" d="M10.393 12.259C9.56814 12.542 8.01273 12.9252 6.45732 12.9252C4.30684 12.9252 2.74554 12.3828 1.66146 11.3512C0.595063 10.3195 0 8.77497 0 7.04177C0.0117834 3.11555 2.86337 0.875366 6.73423 0.875366C8.25429 0.875366 9.42674 1.17013 10.0041 1.43541L9.44441 3.58717C8.79633 3.28651 8.00684 3.08018 6.71655 3.08018C4.49538 3.08018 2.79856 4.34176 2.79856 6.90028C2.79856 9.45881 4.3363 10.7676 6.52802 10.7676C7.12308 10.7676 7.61209 10.6968 7.82419 10.6084V9.03436H6.00365V6.94745H10.3989V12.2531L10.393 12.259Z" fill="black"/>
<path fill-rule="evenodd" clip-rule="evenodd" d="M16.4617 8.75744C15.0594 8.75744 13.9754 9.08757 13.9754 10.1074C13.9754 10.7913 14.429 11.1214 15.0241 11.1214C15.6722 11.1214 16.2319 10.6852 16.4086 10.1428C16.444 10.0013 16.4617 9.84805 16.4617 9.68888V8.75744ZM19.0304 10.7382C19.0304 11.5459 19.0658 12.3299 19.1718 12.8016H16.7739L16.6148 11.9409H16.5618C16.0021 12.6247 15.1242 12.9902 14.1109 12.9902C12.3787 12.9902 11.3477 11.7286 11.3477 10.3609C11.3477 8.13844 13.3449 7.08909 16.3733 7.08909V6.98298C16.3733 6.52904 16.1258 5.88057 14.8179 5.88057C13.94 5.88057 13.015 6.18123 12.4553 6.51136L11.9663 4.81353C12.5613 4.4834 13.7338 4.04126 15.2892 4.04126C18.1408 4.04126 19.0363 5.7214 19.0363 7.73756V10.7323L19.0304 10.7382Z" fill="black"/>
<path fill-rule="evenodd" clip-rule="evenodd" d="M28.4742 10.0543C28.4742 11.1744 28.5095 12.0882 28.5449 12.8015H26.2353L26.1116 11.593H26.0586C25.7228 12.1176 24.9215 12.996 23.3779 12.996C21.628 12.996 20.3672 11.9113 20.3672 9.26434V4.23572H23.0302V8.83989C23.0302 10.0838 23.4309 10.8384 24.3794 10.8384C25.1159 10.8384 25.5519 10.3314 25.711 9.91282C25.7817 9.75365 25.817 9.565 25.817 9.33509V4.23572H28.4801V10.0484L28.4742 10.0543Z" fill="black"/>
<path fill-rule="evenodd" clip-rule="evenodd" d="M29.9961 12.8016H32.6591V0.36853H29.9961V12.8016Z" fill="black"/>
<path fill-rule="evenodd" clip-rule="evenodd" d="M37.1534 1.90686V4.23547H39.0623V6.19858H37.1534V9.31716C37.1534 10.3488 37.4185 10.8204 38.2021 10.8204C38.5674 10.8204 38.7441 10.8028 38.9916 10.7497L39.0093 12.7659C38.6793 12.8897 38.0312 12.9958 37.2948 12.9958C36.4346 12.9958 35.7217 12.701 35.2798 12.2589C34.7908 11.7519 34.5434 10.9266 34.5434 9.71803V6.19858H33.4062V4.23547H34.5434V2.62608L37.1534 1.90686Z" fill="black"/>
<path fill-rule="evenodd" clip-rule="evenodd" d="M68.2205 12.8016H70.8777V0.36858H68.2205V12.8016ZM76.9579 9.68303C76.9579 9.8422 76.9403 9.99548 76.9049 10.137C76.7281 10.6793 76.1684 11.1156 75.5204 11.1156C74.9253 11.1156 74.4716 10.7795 74.4716 10.1016C74.4716 9.08762 75.5557 8.75159 76.9579 8.75159V9.67714V9.68303ZM79.5267 7.7435C79.5267 5.72734 78.6312 4.0472 75.7796 4.0472C74.2242 4.0472 73.0517 4.48345 72.4567 4.81947L72.9457 6.5173C73.5054 6.18717 74.4363 5.88651 75.3083 5.88651C76.6221 5.88651 76.8637 6.53498 76.8637 6.98892V7.09503C73.8353 7.09503 71.8439 8.14438 71.8439 10.3669C71.8439 11.7346 72.875 12.9961 74.6071 12.9961C75.6205 12.9961 76.4984 12.6306 77.0581 11.9468H77.1111L77.2702 12.8075H79.6681C79.5621 12.3359 79.5267 11.5459 79.5267 10.7383V7.7435ZM88.9358 10.0544V4.23585H86.2727V9.32932C86.2727 9.55334 86.2374 9.74788 86.1667 9.90705C86.0076 10.3256 85.5716 10.8326 84.8351 10.8326C83.8925 10.8326 83.486 10.078 83.486 8.83412V4.22995H80.8288V9.25858C80.8288 11.9055 82.0896 12.9903 83.8394 12.9903C85.3772 12.9903 86.1844 12.1178 86.5143 11.5872H86.5673L86.691 12.7957H89.0006C88.9652 12.0765 88.9299 11.1686 88.9299 10.0485L88.9358 10.0544ZM54.2807 0.999369L53.0376 4.91969C52.6369 6.25201 52.2304 7.79067 51.9182 9.15836H51.8475C51.5823 7.77298 51.2347 6.30507 50.8518 4.95506L49.697 0.999369H46.1443L45.5963 9.58871C45.3489 9.95421 44.9424 10.19 44.2589 10.1959H43.4753C43.0158 10.1959 42.7153 10.3256 42.5327 10.5202C42.3559 10.7147 42.3029 10.9564 42.3029 11.1686V11.2453H42.6151V11.1745C42.6446 10.8916 43.0335 10.7678 43.3575 10.7678H43.7346C43.7169 11.7169 43.11 12.4066 42.1202 12.4066C41.3131 12.4066 40.5236 11.8407 40.5236 11.0095C40.5236 10.1782 41.2954 9.65356 42.0613 9.65356C42.2263 9.65356 42.3441 9.65356 42.4325 9.62998C42.5209 9.61819 42.6093 9.54744 42.6034 9.45901C42.6093 9.38238 42.5444 9.30574 42.4502 9.27626C42.35 9.24089 42.2086 9.21142 41.9729 9.18194C41.3838 9.05224 40.9949 8.48041 40.9949 8.05595C40.9949 7.41927 41.4721 7.04197 42.1968 7.03608C42.8567 7.03608 43.2279 7.41337 43.4046 8.06185L43.4164 8.1208H43.6344H43.7346L43.7228 8.03237C43.6639 7.64329 43.6108 7.24831 43.5873 6.85922V6.81795L43.5519 6.80027C43.1807 6.58804 42.6623 6.50551 42.1733 6.50551C41.2542 6.50551 40.2585 7.03608 40.2585 8.05006C40.2585 8.7398 40.6179 9.12299 41.154 9.38827C40.3527 9.55334 39.7871 10.1605 39.793 11.0212C39.793 12.3182 40.9596 12.9313 42.132 12.9372H42.1438C43.5343 12.9372 44.4298 12.047 44.4828 10.7619C44.9718 10.7265 45.3135 10.5732 45.5551 10.361L45.4019 12.7957H47.8706L48.1003 8.30945C48.171 6.83564 48.2417 5.01402 48.2948 3.42231H48.3301C48.6247 4.97864 49.0135 6.64699 49.3965 8.04416L50.6573 12.5953H52.743L54.1806 7.9911C54.6342 6.60573 55.1232 4.92559 55.5121 3.42231H55.5475C55.5475 5.1555 55.6005 6.85333 55.6535 8.27408L55.8479 12.7898H58.4403L57.8099 0.987578H54.3102L54.2807 0.999369ZM64.0374 12.8016H66.7005V0.36858H64.0374V12.8016ZM59.8602 12.8016H62.5232V4.23585H59.8602V12.8016ZM61.2035 0.280151C60.2962 0.280151 59.7011 0.893255 59.7011 1.7009C59.7011 2.50855 60.2785 3.12165 61.174 3.12165H61.1917C62.1167 3.12165 62.6941 2.49086 62.6941 1.7009C62.6764 0.893255 62.1167 0.280151 61.2094 0.280151H61.2035Z" fill="black"/>
</svg>
