<svg width="93" height="33" viewBox="0 0 93 33" fill="none" xmlns="http://www.w3.org/2000/svg">
<path d="M16.32 6.92C16.1867 7.16 16.0667 7.41333 15.96 7.68C15.8533 7.89333 15.76 8.16 15.68 8.48C15.6267 8.77333 15.6 9.08 15.6 9.4C15.6 9.4 15.6 9.6 15.6 10C15.6 10.4 15.5867 10.9333 15.56 11.6C15.56 12.24 15.56 12.9733 15.56 13.8C15.56 14.6267 15.56 15.48 15.56 16.36V23.28C15.56 24.1333 15.4267 24.9333 15.16 25.68C14.8933 26.4267 14.52 27.08 14.04 27.64C13.56 28.2 12.9733 28.64 12.28 28.96C11.5867 29.28 10.8133 29.44 9.96 29.44H9.56C7.10667 29.44 5.18667 28.92 3.8 27.88C2.41333 26.8133 1.72 25.24 1.72 23.16V11.8C1.72 10.8667 1.66667 10.0933 1.56 9.48C1.48 8.86667 1.38667 8.37333 1.28 8C1.14667 7.54666 1 7.18666 0.84 6.92H6.84C6.65333 7.18666 6.50667 7.54666 6.4 8C6.26667 8.37333 6.16 8.86667 6.08 9.48C6 10.0933 5.96 10.8667 5.96 11.8V23C5.96 23.7467 6.01333 24.44 6.12 25.08C6.25333 25.72 6.45333 26.2667 6.72 26.72C7.01333 27.1733 7.38667 27.5333 7.84 27.8C8.32 28.0667 8.89333 28.2 9.56 28.2H9.96C10.6267 28.2 11.2267 28.08 11.76 27.84C12.2933 27.5733 12.7467 27.2133 13.12 26.76C13.52 26.3067 13.8133 25.7867 14 25.2C14.2133 24.6133 14.32 23.9733 14.32 23.28V9.44C14.32 9.06667 14.28 8.73333 14.2 8.44C14.12 8.12 14.04 7.85333 13.96 7.64C13.8533 7.37333 13.7333 7.13333 13.6 6.92H16.32ZM4.88 3.08C4.32 3.10667 3.77333 3.2 3.24 3.36C2.73333 3.49333 2.29333 3.66667 1.92 3.88C2.08 3.26667 2.36 2.76 2.76 2.36C3.18667 1.93333 3.64 1.6 4.12 1.36C4.62667 1.09333 5.12 0.906665 5.6 0.799998C6.08 0.666665 6.48 0.599998 6.8 0.599998C7.38667 0.573332 7.90667 0.613332 8.36 0.719999C8.84 0.826666 9.30667 0.959999 9.76 1.12C10.2133 1.25333 10.68 1.37333 11.16 1.48C11.6667 1.58667 12.24 1.62667 12.88 1.6C13.4133 1.57333 13.88 1.48 14.28 1.32C14.68 1.16 15.0667 0.973333 15.44 0.759999C15.2533 1.42666 14.9467 1.97333 14.52 2.4C14.12 2.82667 13.68 3.16 13.2 3.4C12.72 3.64 12.2533 3.81333 11.8 3.92C11.3467 4.02667 10.9733 4.08 10.68 4.08C10.0933 4.10667 9.58667 4.06667 9.16 3.96C8.73333 3.85333 8.30667 3.73333 7.88 3.6C7.45333 3.44 7 3.30667 6.52 3.2C6.06667 3.09333 5.52 3.05333 4.88 3.08ZM21.4553 0.559999C21.322 0.773333 21.202 1.01333 21.0953 1.28C21.0153 1.49333 20.9353 1.76 20.8553 2.08C20.802 2.37333 20.7753 2.70667 20.7753 3.08V19.08L29.5753 0.599998H33.9753C33.8153 0.813332 33.682 1.12 33.5753 1.52C33.4686 1.86667 33.362 2.32 33.2553 2.88C33.1753 3.41333 33.122 4.10667 33.0953 4.96V26.44C33.0953 26.8133 33.122 27.16 33.1753 27.48C33.2553 27.7733 33.3486 28.0267 33.4553 28.24C33.562 28.5067 33.682 28.7467 33.8153 28.96H31.1353C31.242 28.7467 31.3486 28.5067 31.4553 28.24C31.5353 28.0267 31.6153 27.7733 31.6953 27.48C31.7753 27.1867 31.8153 26.8667 31.8153 26.52V5.52L20.7753 28.96H19.4953V3C19.4953 2.65333 19.4553 2.33333 19.3753 2.04C19.2953 1.74666 19.2153 1.49333 19.1353 1.28C19.0286 1.01333 18.9086 0.773333 18.7753 0.559999H21.4553ZM41.1963 24.12C41.1963 25.0267 41.2363 25.8 41.3163 26.44C41.3696 26.76 41.4229 27.04 41.4763 27.28C41.5296 27.52 41.5829 27.7467 41.6363 27.96C41.7696 28.4667 41.9163 28.8133 42.0763 29H36.0763C36.2629 28.7333 36.4096 28.3867 36.5163 27.96C36.5696 27.7467 36.6229 27.52 36.6763 27.28C36.7296 27.04 36.7829 26.76 36.8363 26.44C36.9163 25.8 36.9563 25.0267 36.9563 24.12V24.08V14.68C36.9563 13.7733 36.9163 13 36.8363 12.36C36.7829 12.04 36.7296 11.76 36.6763 11.52C36.6229 11.28 36.5696 11.0533 36.5163 10.84C36.4096 10.4133 36.2629 10.0667 36.0763 9.8H42.0763C41.9163 9.98667 41.7696 10.3333 41.6363 10.84C41.5829 11.0533 41.5296 11.28 41.4763 11.52C41.4229 11.76 41.3696 12.04 41.3163 12.36C41.2363 13 41.1963 13.7733 41.1963 14.68V24.08V24.12ZM39.0763 8.44L36.6363 4.36L39.0763 0.239998L41.4763 4.36L39.0763 8.44ZM51.8813 0.239998C52.8413 0.239998 53.7346 0.413332 54.5613 0.759999C55.3879 1.08 56.0946 1.52 56.6813 2.08C57.2946 2.64 57.7746 3.29333 58.1213 4.04C58.4679 4.78667 58.6413 5.57333 58.6413 6.4V23.32C58.6413 24.0933 58.4946 24.8267 58.2013 25.52C57.9346 26.2133 57.5479 26.8267 57.0413 27.36C57.1213 27.8667 57.0813 28.4133 56.9213 29C56.7879 29.5867 56.5479 30.12 56.2013 30.6C55.8813 31.08 55.4679 31.4533 54.9613 31.72C54.4546 31.9867 53.8946 32.04 53.2812 31.88C53.8679 31.08 54.1879 30.1333 54.2413 29.04C53.4679 29.2533 52.7079 29.36 51.9613 29.36C51.0013 29.36 50.0946 29.2 49.2413 28.88C48.3879 28.56 47.6413 28.1333 47.0013 27.6C46.3879 27.04 45.8946 26.4 45.5213 25.68C45.1746 24.9333 45.0013 24.1467 45.0013 23.32V6.4C45.0013 5.57333 45.1746 4.78667 45.5213 4.04C45.8679 3.29333 46.3479 2.64 46.9613 2.08C47.5746 1.52 48.2946 1.08 49.1213 0.759999C49.9746 0.413332 50.8946 0.239998 51.8813 0.239998ZM51.9613 28.2C52.4146 28.2 52.7879 28.12 53.0813 27.96C53.3746 27.7733 53.6146 27.5467 53.8013 27.28C53.5879 26.9333 53.3079 26.6533 52.9613 26.44C52.6413 26.2 52.2813 26.04 51.8813 25.96C51.4813 25.8533 51.0546 25.8133 50.6013 25.84C50.1746 25.8667 49.7746 25.96 49.4013 26.12C49.5346 26.6533 49.8013 27.1333 50.2013 27.56C50.6013 27.9867 51.1879 28.2 51.9613 28.2ZM54.4013 4.72C54.4013 4.4 54.3613 4.05333 54.2813 3.68C54.2279 3.30667 54.1079 2.96 53.9213 2.64C53.7346 2.32 53.4679 2.05333 53.1213 1.84C52.8013 1.62667 52.3879 1.52 51.8813 1.52C51.3479 1.52 50.9079 1.64 50.5613 1.88C50.2413 2.09333 49.9746 2.36 49.7613 2.68C49.5746 3 49.4413 3.34667 49.3613 3.72C49.2813 4.09333 49.2413 4.42667 49.2413 4.72V24.56C50.0413 23.9467 50.8946 23.6133 51.8013 23.56C52.7079 23.48 53.5746 23.6267 54.4013 24V4.72ZM76.7888 6.92C76.6554 7.16 76.5354 7.41333 76.4288 7.68C76.3221 7.89333 76.2288 8.16 76.1488 8.48C76.0954 8.77333 76.0688 9.08 76.0688 9.4C76.0688 9.4 76.0688 9.6 76.0688 10C76.0688 10.4 76.0554 10.9333 76.0288 11.6C76.0288 12.24 76.0288 12.9733 76.0288 13.8C76.0288 14.6267 76.0288 15.48 76.0288 16.36V23.28C76.0288 24.1333 75.8954 24.9333 75.6288 25.68C75.3621 26.4267 74.9888 27.08 74.5088 27.64C74.0288 28.2 73.4421 28.64 72.7488 28.96C72.0554 29.28 71.2821 29.44 70.4288 29.44H70.0288C67.5754 29.44 65.6554 28.92 64.2688 27.88C62.8821 26.8133 62.1888 25.24 62.1888 23.16V11.8C62.1888 10.8667 62.1354 10.0933 62.0288 9.48C61.9488 8.86667 61.8554 8.37333 61.7488 8C61.6154 7.54666 61.4688 7.18666 61.3088 6.92H67.3088C67.1221 7.18666 66.9754 7.54666 66.8688 8C66.7354 8.37333 66.6288 8.86667 66.5488 9.48C66.4688 10.0933 66.4288 10.8667 66.4288 11.8V23C66.4288 23.7467 66.4821 24.44 66.5888 25.08C66.7221 25.72 66.9221 26.2667 67.1888 26.72C67.4821 27.1733 67.8554 27.5333 68.3088 27.8C68.7888 28.0667 69.3621 28.2 70.0288 28.2H70.4288C71.0954 28.2 71.6954 28.08 72.2287 27.84C72.7621 27.5733 73.2154 27.2133 73.5888 26.76C73.9888 26.3067 74.2821 25.7867 74.4688 25.2C74.6821 24.6133 74.7888 23.9733 74.7888 23.28V9.44C74.7888 9.06667 74.7488 8.73333 74.6688 8.44C74.5888 8.12 74.5088 7.85333 74.4288 7.64C74.3221 7.37333 74.2021 7.13333 74.0688 6.92H76.7888ZM65.3488 3.08C64.7888 3.10667 64.2421 3.2 63.7088 3.36C63.2021 3.49333 62.7621 3.66667 62.3888 3.88C62.5488 3.26667 62.8288 2.76 63.2288 2.36C63.6554 1.93333 64.1088 1.6 64.5888 1.36C65.0954 1.09333 65.5888 0.906665 66.0688 0.799998C66.5488 0.666665 66.9488 0.599998 67.2688 0.599998C67.8554 0.573332 68.3754 0.613332 68.8288 0.719999C69.3088 0.826666 69.7754 0.959999 70.2288 1.12C70.6821 1.25333 71.1488 1.37333 71.6288 1.48C72.1354 1.58667 72.7088 1.62667 73.3488 1.6C73.8821 1.57333 74.3488 1.48 74.7488 1.32C75.1488 1.16 75.5354 0.973333 75.9088 0.759999C75.7221 1.42666 75.4154 1.97333 74.9888 2.4C74.5888 2.82667 74.1488 3.16 73.6688 3.4C73.1888 3.64 72.7221 3.81333 72.2688 3.92C71.8154 4.02667 71.4421 4.08 71.1488 4.08C70.5621 4.10667 70.0554 4.06667 69.6288 3.96C69.2021 3.85333 68.7754 3.73333 68.3488 3.6C67.9221 3.44 67.4688 3.30667 66.9888 3.2C66.5354 3.09333 65.9888 3.05333 65.3488 3.08ZM92.5241 22.68H79.0041C79.1641 22.44 79.3107 22.0933 79.4441 21.64C79.5507 21.2667 79.6441 20.7733 79.7241 20.16C79.8307 19.52 79.8841 18.7333 79.8841 17.8V5.48C79.8841 4.54667 79.8307 3.77333 79.7241 3.16C79.6441 2.52 79.5507 2.01333 79.4441 1.64C79.3107 1.18667 79.1641 0.839999 79.0041 0.599998H92.1241L91.7641 4.56H90.8441C90.7107 4.02667 90.5774 3.57333 90.4441 3.2C90.3107 2.82667 90.1107 2.52 89.8441 2.28C89.5774 2.04 89.1907 1.86666 88.6841 1.76C88.1774 1.65333 87.4707 1.6 86.5641 1.6H84.1241V9C84.9241 9.05333 85.6574 9.05333 86.3241 9C86.9907 8.94667 87.5641 8.89333 88.0441 8.84C88.6041 8.76 89.0974 8.66667 89.5241 8.56C89.5507 8.72 89.5641 8.89333 89.5641 9.08C89.5641 9.37333 89.4974 9.74667 89.3641 10.2C89.2307 10.6 88.9374 10.8667 88.4841 11C88.0307 11.1067 87.5774 11.0933 87.1241 10.96L84.1241 10.12V20C84.1241 20.1333 84.1507 20.3067 84.2041 20.52C84.2841 20.7067 84.4041 20.8933 84.5641 21.08C84.7507 21.2667 85.0041 21.4267 85.3241 21.56C85.6441 21.6667 86.0574 21.72 86.5641 21.72H87.9641C88.5774 21.72 89.0707 21.6133 89.4441 21.4C89.8174 21.16 90.1107 20.8533 90.3241 20.48C90.5641 20.08 90.7374 19.6533 90.8441 19.2C90.9774 18.72 91.1107 18.24 91.2441 17.76H92.1641L92.5241 22.68ZM81.8441 27.88C81.2841 27.9067 80.7374 28 80.2041 28.16C79.6974 28.2933 79.2574 28.4667 78.8841 28.68C79.0441 28.0667 79.3241 27.56 79.7241 27.16C80.1507 26.7333 80.6041 26.4 81.0841 26.16C81.5907 25.8933 82.0841 25.7067 82.5641 25.6C83.0441 25.4667 83.4441 25.4 83.7641 25.4C84.3507 25.3733 84.8707 25.4133 85.3241 25.52C85.8041 25.6267 86.2707 25.76 86.7241 25.92C87.1774 26.0533 87.6441 26.1733 88.1241 26.28C88.6307 26.3867 89.2041 26.4267 89.8441 26.4C90.3774 26.3733 90.8441 26.28 91.2441 26.12C91.6441 25.96 92.0307 25.7733 92.4041 25.56C92.2174 26.2267 91.9107 26.7733 91.4841 27.2C91.0841 27.6267 90.6441 27.96 90.1641 28.2C89.6841 28.44 89.2174 28.6133 88.7641 28.72C88.3107 28.8267 87.9374 28.88 87.6441 28.88C87.0574 28.9067 86.5507 28.8667 86.1241 28.76C85.6974 28.6533 85.2707 28.5333 84.8441 28.4C84.4174 28.24 83.9641 28.1067 83.4841 28C83.0307 27.8933 82.4841 27.8533 81.8441 27.88Z" fill="black"/>
</svg>
