<svg width="20" height="23" viewBox="0 0 20 23" fill="none" xmlns="http://www.w3.org/2000/svg">
<path d="M10 11.25C8.02344 11.25 6.21875 10.2188 5.23047 8.5C4.24219 6.82422 4.24219 4.71875 5.23047 3C6.21875 1.32422 8.02344 0.25 10 0.25C11.9336 0.25 13.7383 1.32422 14.7266 3C15.7148 4.71875 15.7148 6.82422 14.7266 8.5C13.7383 10.2188 11.9336 11.25 10 11.25ZM8.02344 13.3125H11.9336C16.1875 13.3125 19.625 16.75 19.625 21.0039C19.625 21.6914 19.0234 22.25 18.3359 22.25H1.62109C0.933594 22.25 0.375 21.6914 0.375 21.0039C0.375 16.75 3.76953 13.3125 8.02344 13.3125Z" fill="black"/>
</svg>
